{
	"asset":{
		"generator":"Khronos glTF Blender I/O v4.0.44",
		"version":"2.0"
	},
	"extensionsUsed":[
		"KHR_materials_specular",
		"KHR_materials_ior"
	],
	"scene":0,
	"scenes":[
		{
			"name":"Scene",
			"nodes":[
				0,
				1
			]
		}
	],
	"nodes":[
		{
			"mesh":0,
			"name":"Bed",
			"scale":[
				1.150037407875061,
				1.150037407875061,
				1.150037407875061
			],
			"translation":[
				0,
				0.09145575761795044,
				-0.4857821464538574
			]
		},
		{
			"mesh":1,
			"name":"Pillow.001",
			"rotation":[
				-0.017467953264713287,
				0,
				0,
				0.9998475313186646
			],
			"translation":[
				0,
				0.38632580637931824,
				0.4857821464538574
			]
		}
	],
	"materials":[
		{
			"doubleSided":true,
			"extensions":{
				"KHR_materials_specular":{
					"specularFactor":0
				},
				"KHR_materials_ior":{
					"ior":1.4500000476837158
				}
			},
			"name":"Fabric",
			"pbrMetallicRoughness":{
				"baseColorTexture":{
					"index":0
				},
				"metallicFactor":0
			}
		},
		{
			"doubleSided":true,
			"extensions":{
				"KHR_materials_specular":{
					"specularFactor":0
				},
				"KHR_materials_ior":{
					"ior":1.4500000476837158
				}
			},
			"name":"Wood_03",
			"pbrMetallicRoughness":{
				"baseColorTexture":{
					"index":1
				},
				"metallicFactor":0
			}
		},
		{
			"doubleSided":true,
			"extensions":{
				"KHR_materials_specular":{
					"specularFactor":0
				},
				"KHR_materials_ior":{
					"ior":1.4500000476837158
				}
			},
			"name":"Fabric_20",
			"pbrMetallicRoughness":{
				"baseColorTexture":{
					"index":2
				},
				"metallicFactor":0
			}
		}
	],
	"meshes":[
		{
			"name":"Bed",
			"primitives":[
				{
					"attributes":{
						"POSITION":0,
						"NORMAL":1,
						"TEXCOORD_0":2
					},
					"indices":3,
					"material":0
				},
				{
					"attributes":{
						"POSITION":4,
						"NORMAL":5,
						"TEXCOORD_0":6
					},
					"indices":7,
					"material":1
				}
			]
		},
		{
			"name":"Pillow.001",
			"primitives":[
				{
					"attributes":{
						"POSITION":8,
						"NORMAL":9,
						"TEXCOORD_0":10
					},
					"indices":11,
					"material":2
				}
			]
		}
	],
	"textures":[
		{
			"sampler":0,
			"source":0
		},
		{
			"sampler":0,
			"source":1
		},
		{
			"sampler":0,
			"source":2
		}
	],
	"images":[
		{
			"mimeType":"image/jpeg",
			"name":"Fabric",
			"uri":"Fabric.jpg"
		},
		{
			"mimeType":"image/jpeg",
			"name":"Wood_03",
			"uri":"Wood_03.jpg"
		},
		{
			"mimeType":"image/jpeg",
			"name":"Fabric_20",
			"uri":"Fabric_20.jpg"
		}
	],
	"accessors":[
		{
			"bufferView":0,
			"componentType":5126,
			"count":16,
			"max":[
				0.681227445602417,
				0.162143275141716,
				1.2133406400680542
			],
			"min":[
				-0.6812272667884827,
				-0.006367650348693132,
				-1.2133406400680542
			],
			"type":"VEC3"
		},
		{
			"bufferView":1,
			"componentType":5126,
			"count":16,
			"type":"VEC3"
		},
		{
			"bufferView":2,
			"componentType":5126,
			"count":16,
			"type":"VEC2"
		},
		{
			"bufferView":3,
			"componentType":5123,
			"count":30,
			"type":"SCALAR"
		},
		{
			"bufferView":4,
			"componentType":5126,
			"count":272,
			"max":[
				0.744194746017456,
				0.5603612661361694,
				1.270158052444458
			],
			"min":[
				-0.744194746017456,
				-0.22908146679401398,
				-1.270158290863037
			],
			"type":"VEC3"
		},
		{
			"bufferView":5,
			"componentType":5126,
			"count":272,
			"type":"VEC3"
		},
		{
			"bufferView":6,
			"componentType":5126,
			"count":272,
			"type":"VEC2"
		},
		{
			"bufferView":7,
			"componentType":5123,
			"count":696,
			"type":"SCALAR"
		},
		{
			"bufferView":8,
			"componentType":5126,
			"count":150,
			"max":[
				0.41441839933395386,
				0.1305185705423355,
				0.2877730131149292
			],
			"min":[
				-0.4067443013191223,
				-0.17694218456745148,
				-0.30738863348960876
			],
			"type":"VEC3"
		},
		{
			"bufferView":9,
			"componentType":5126,
			"count":150,
			"type":"VEC3"
		},
		{
			"bufferView":10,
			"componentType":5126,
			"count":150,
			"type":"VEC2"
		},
		{
			"bufferView":11,
			"componentType":5123,
			"count":576,
			"type":"SCALAR"
		}
	],
	"bufferViews":[
		{
			"buffer":0,
			"byteLength":192,
			"byteOffset":0,
			"target":34962
		},
		{
			"buffer":0,
			"byteLength":192,
			"byteOffset":192,
			"target":34962
		},
		{
			"buffer":0,
			"byteLength":128,
			"byteOffset":384,
			"target":34962
		},
		{
			"buffer":0,
			"byteLength":60,
			"byteOffset":512,
			"target":34963
		},
		{
			"buffer":0,
			"byteLength":3264,
			"byteOffset":572,
			"target":34962
		},
		{
			"buffer":0,
			"byteLength":3264,
			"byteOffset":3836,
			"target":34962
		},
		{
			"buffer":0,
			"byteLength":2176,
			"byteOffset":7100,
			"target":34962
		},
		{
			"buffer":0,
			"byteLength":1392,
			"byteOffset":9276,
			"target":34963
		},
		{
			"buffer":0,
			"byteLength":1800,
			"byteOffset":10668,
			"target":34962
		},
		{
			"buffer":0,
			"byteLength":1800,
			"byteOffset":12468,
			"target":34962
		},
		{
			"buffer":0,
			"byteLength":1200,
			"byteOffset":14268,
			"target":34962
		},
		{
			"buffer":0,
			"byteLength":1152,
			"byteOffset":15468,
			"target":34963
		}
	],
	"samplers":[
		{
			"magFilter":9728,
			"minFilter":9984
		}
	],
	"buffers":[
		{
			"byteLength":16620,
			"uri":"bed.bin"
		}
	]
}
