{
	"asset":{
		"generator":"Khronos glTF Blender I/O v4.0.44",
		"version":"2.0"
	},
	"scene":0,
	"scenes":[
		{
			"name":"Scene",
			"nodes":[
				0
			]
		}
	],
	"nodes":[
		{
			"mesh":0,
			"name":"Sofa C"
		}
	],
	"materials":[
		{
			"doubleSided":true,
			"name":"Blue",
			"pbrMetallicRoughness":{
				"baseColorFactor":[
					0.07112232595682144,
					0.11088339984416962,
					0.26890936493873596,
					1
				],
				"metallicFactor":0,
				"roughnessFactor":0.5
			}
		}
	],
	"meshes":[
		{
			"name":"Cube.040",
			"primitives":[
				{
					"attributes":{
						"COLOR_0":0,
						"POSITION":1,
						"NORMAL":2,
						"TEXCOORD_0":3
					},
					"indices":4,
					"material":0
				}
			]
		}
	],
	"accessors":[
		{
			"bufferView":0,
			"componentType":5123,
			"count":1170,
			"normalized":true,
			"type":"VEC4"
		},
		{
			"bufferView":1,
			"componentType":5126,
			"count":1170,
			"max":[
				2.7863268852233887,
				2.7333433628082275,
				2.32187557220459
			],
			"min":[
				-2.7863268852233887,
				0.020410895347595215,
				-1.7519222497940063
			],
			"type":"VEC3"
		},
		{
			"bufferView":2,
			"componentType":5126,
			"count":1170,
			"type":"VEC3"
		},
		{
			"bufferView":3,
			"componentType":5126,
			"count":1170,
			"type":"VEC2"
		},
		{
			"bufferView":4,
			"componentType":5123,
			"count":2400,
			"type":"SCALAR"
		}
	],
	"bufferViews":[
		{
			"buffer":0,
			"byteLength":9360,
			"byteOffset":0,
			"target":34962
		},
		{
			"buffer":0,
			"byteLength":14040,
			"byteOffset":9360,
			"target":34962
		},
		{
			"buffer":0,
			"byteLength":14040,
			"byteOffset":23400,
			"target":34962
		},
		{
			"buffer":0,
			"byteLength":9360,
			"byteOffset":37440,
			"target":34962
		},
		{
			"buffer":0,
			"byteLength":4800,
			"byteOffset":46800,
			"target":34963
		}
	],
	"buffers":[
		{
			"byteLength":51600,
			"uri":"big_chair.bin"
		}
	]
}
