{
	"asset":{
		"generator":"Khronos glTF Blender I/O v4.0.44",
		"version":"2.0"
	},
	"extensionsUsed":[
		"KHR_materials_specular",
		"KHR_materials_ior"
	],
	"scene":0,
	"scenes":[
		{
			"name":"Scene",
			"nodes":[
				0,
				1
			]
		}
	],
	"nodes":[
		{
			"mesh":0,
			"name":"Ceiling_Fan_Blades_01",
			"scale":[
				0.7969933748245239,
				0.7969933748245239,
				0.7969933748245239
			],
			"translation":[
				0,
				-0.579406201839447,
				0
			]
		},
		{
			"mesh":1,
			"name":"Ceiling_Fan_01",
			"scale":[
				0.7969933748245239,
				0.7969933748245239,
				0.7969933748245239
			],
			"translation":[
				0,
				-0.06385716795921326,
				0
			]
		}
	],
	"materials":[
		{
			"alphaMode":"BLEND",
			"doubleSided":true,
			"extensions":{
				"KHR_materials_specular":{
					"specularFactor":0
				},
				"KHR_materials_ior":{
					"ior":1.4500000476837158
				}
			},
			"name":"Ceiling_Fan_01",
			"pbrMetallicRoughness":{
				"baseColorTexture":{
					"index":0
				},
				"metallicFactor":0
			}
		}
	],
	"meshes":[
		{
			"name":"Ceiling_Fan_Blades_01.003",
			"primitives":[
				{
					"attributes":{
						"POSITION":0,
						"NORMAL":1,
						"TEXCOORD_0":2
					},
					"indices":3,
					"material":0
				}
			]
		},
		{
			"name":"Ceiling_Fan_01",
			"primitives":[
				{
					"attributes":{
						"POSITION":4,
						"NORMAL":5,
						"TEXCOORD_0":6
					},
					"indices":7,
					"material":0
				}
			]
		}
	],
	"textures":[
		{
			"sampler":0,
			"source":0
		}
	],
	"images":[
		{
			"mimeType":"image/png",
			"name":"Ceiling_Fan_01",
			"uri":"Ceiling_Fan_01.png"
		}
	],
	"accessors":[
		{
			"bufferView":0,
			"componentType":5126,
			"count":199,
			"max":[
				1.420284390449524,
				0.04156334325671196,
				1.2596750259399414
			],
			"min":[
				-0.7940040230751038,
				-0.06151062250137329,
				-1.287520170211792
			],
			"type":"VEC3"
		},
		{
			"bufferView":1,
			"componentType":5126,
			"count":199,
			"type":"VEC3"
		},
		{
			"bufferView":2,
			"componentType":5126,
			"count":199,
			"type":"VEC2"
		},
		{
			"bufferView":3,
			"componentType":5123,
			"count":420,
			"type":"SCALAR"
		},
		{
			"bufferView":4,
			"componentType":5126,
			"count":92,
			"max":[
				0.10176169872283936,
				0.08550387620925903,
				0.11750821769237518
			],
			"min":[
				-0.1017693281173706,
				-0.6153555512428284,
				-0.11750926822423935
			],
			"type":"VEC3"
		},
		{
			"bufferView":5,
			"componentType":5126,
			"count":92,
			"type":"VEC3"
		},
		{
			"bufferView":6,
			"componentType":5126,
			"count":92,
			"type":"VEC2"
		},
		{
			"bufferView":7,
			"componentType":5123,
			"count":264,
			"type":"SCALAR"
		}
	],
	"bufferViews":[
		{
			"buffer":0,
			"byteLength":2388,
			"byteOffset":0,
			"target":34962
		},
		{
			"buffer":0,
			"byteLength":2388,
			"byteOffset":2388,
			"target":34962
		},
		{
			"buffer":0,
			"byteLength":1592,
			"byteOffset":4776,
			"target":34962
		},
		{
			"buffer":0,
			"byteLength":840,
			"byteOffset":6368,
			"target":34963
		},
		{
			"buffer":0,
			"byteLength":1104,
			"byteOffset":7208,
			"target":34962
		},
		{
			"buffer":0,
			"byteLength":1104,
			"byteOffset":8312,
			"target":34962
		},
		{
			"buffer":0,
			"byteLength":736,
			"byteOffset":9416,
			"target":34962
		},
		{
			"buffer":0,
			"byteLength":528,
			"byteOffset":10152,
			"target":34963
		}
	],
	"samplers":[
		{
			"magFilter":9728,
			"minFilter":9984
		}
	],
	"buffers":[
		{
			"byteLength":10680,
			"uri":"ceiling_fan.bin"
		}
	]
}
