{
	"asset":{
		"generator":"Khronos glTF Blender I/O v4.0.44",
		"version":"2.0"
	},
	"scene":0,
	"scenes":[
		{
			"name":"Scene",
			"nodes":[
				0,
				1
			]
		}
	],
	"nodes":[
		{
			"mesh":0,
			"name":"Oven"
		},
		{
			"mesh":1,
			"name":"Knob"
		}
	],
	"materials":[
		{
			"doubleSided":true,
			"name":"White.012",
			"pbrMetallicRoughness":{
				"baseColorFactor":[
					0.6353368163108826,
					0.6353368163108826,
					0.6353368163108826,
					1
				],
				"metallicFactor":0,
				"roughnessFactor":0.5
			}
		},
		{
			"doubleSided":true,
			"name":"Red",
			"pbrMetallicRoughness":{
				"baseColorFactor":[
					0.34115174412727356,
					0.026578301563858986,
					0.013850972056388855,
					1
				],
				"metallicFactor":0,
				"roughnessFactor":0.5
			}
		},
		{
			"doubleSided":true,
			"name":"Grey 2.011",
			"pbrMetallicRoughness":{
				"baseColorFactor":[
					0.08696522563695908,
					0.08696522563695908,
					0.08696522563695908,
					1
				],
				"metallicFactor":0,
				"roughnessFactor":0.5
			}
		},
		{
			"doubleSided":true,
			"name":"Grey.006",
			"pbrMetallicRoughness":{
				"baseColorFactor":[
					0.2600274980068207,
					0.2600274980068207,
					0.2600274980068207,
					1
				],
				"metallicFactor":0,
				"roughnessFactor":0.5
			}
		}
	],
	"meshes":[
		{
			"name":"Cube.027",
			"primitives":[
				{
					"attributes":{
						"POSITION":0,
						"NORMAL":1,
						"TEXCOORD_0":2
					},
					"indices":3,
					"material":0
				},
				{
					"attributes":{
						"POSITION":4,
						"NORMAL":5,
						"TEXCOORD_0":6
					},
					"indices":7,
					"material":1
				},
				{
					"attributes":{
						"POSITION":8,
						"NORMAL":9,
						"TEXCOORD_0":10
					},
					"indices":11,
					"material":2
				}
			]
		},
		{
			"name":"Cube.005",
			"primitives":[
				{
					"attributes":{
						"POSITION":12,
						"NORMAL":13,
						"TEXCOORD_0":14
					},
					"indices":15,
					"material":3
				}
			]
		}
	],
	"accessors":[
		{
			"bufferView":0,
			"componentType":5126,
			"count":40,
			"max":[
				0.20370477437973022,
				0.17104625701904297,
				0.2304079383611679
			],
			"min":[
				-0.20370477437973022,
				-5.960464477539063e-08,
				-0.23040802776813507
			],
			"type":"VEC3"
		},
		{
			"bufferView":1,
			"componentType":5126,
			"count":40,
			"type":"VEC3"
		},
		{
			"bufferView":2,
			"componentType":5126,
			"count":40,
			"type":"VEC2"
		},
		{
			"bufferView":3,
			"componentType":5123,
			"count":72,
			"type":"SCALAR"
		},
		{
			"bufferView":4,
			"componentType":5126,
			"count":276,
			"max":[
				0.13702663779258728,
				0.20807629823684692,
				0.13407449424266815
			],
			"min":[
				-0.132737934589386,
				0.17642927169799805,
				-0.1356901079416275
			],
			"type":"VEC3"
		},
		{
			"bufferView":5,
			"componentType":5126,
			"count":276,
			"type":"VEC3"
		},
		{
			"bufferView":6,
			"componentType":5126,
			"count":276,
			"type":"VEC2"
		},
		{
			"bufferView":7,
			"componentType":5123,
			"count":564,
			"type":"SCALAR"
		},
		{
			"bufferView":8,
			"componentType":5126,
			"count":72,
			"max":[
				0.16324973106384277,
				0.19210386276245117,
				0.2674417495727539
			],
			"min":[
				-0.18327248096466064,
				0.021386802196502686,
				-0.1943444162607193
			],
			"type":"VEC3"
		},
		{
			"bufferView":9,
			"componentType":5126,
			"count":72,
			"type":"VEC3"
		},
		{
			"bufferView":10,
			"componentType":5126,
			"count":72,
			"type":"VEC2"
		},
		{
			"bufferView":11,
			"componentType":5123,
			"count":108,
			"type":"SCALAR"
		},
		{
			"bufferView":12,
			"componentType":5126,
			"count":80,
			"max":[
				-0.07822790741920471,
				0.12629401683807373,
				0.29301297664642334
			],
			"min":[
				-0.1640276312828064,
				0.04049426317214966,
				0.2631431818008423
			],
			"type":"VEC3"
		},
		{
			"bufferView":13,
			"componentType":5126,
			"count":80,
			"type":"VEC3"
		},
		{
			"bufferView":14,
			"componentType":5126,
			"count":80,
			"type":"VEC2"
		},
		{
			"bufferView":15,
			"componentType":5123,
			"count":132,
			"type":"SCALAR"
		}
	],
	"bufferViews":[
		{
			"buffer":0,
			"byteLength":480,
			"byteOffset":0,
			"target":34962
		},
		{
			"buffer":0,
			"byteLength":480,
			"byteOffset":480,
			"target":34962
		},
		{
			"buffer":0,
			"byteLength":320,
			"byteOffset":960,
			"target":34962
		},
		{
			"buffer":0,
			"byteLength":144,
			"byteOffset":1280,
			"target":34963
		},
		{
			"buffer":0,
			"byteLength":3312,
			"byteOffset":1424,
			"target":34962
		},
		{
			"buffer":0,
			"byteLength":3312,
			"byteOffset":4736,
			"target":34962
		},
		{
			"buffer":0,
			"byteLength":2208,
			"byteOffset":8048,
			"target":34962
		},
		{
			"buffer":0,
			"byteLength":1128,
			"byteOffset":10256,
			"target":34963
		},
		{
			"buffer":0,
			"byteLength":864,
			"byteOffset":11384,
			"target":34962
		},
		{
			"buffer":0,
			"byteLength":864,
			"byteOffset":12248,
			"target":34962
		},
		{
			"buffer":0,
			"byteLength":576,
			"byteOffset":13112,
			"target":34962
		},
		{
			"buffer":0,
			"byteLength":216,
			"byteOffset":13688,
			"target":34963
		},
		{
			"buffer":0,
			"byteLength":960,
			"byteOffset":13904,
			"target":34962
		},
		{
			"buffer":0,
			"byteLength":960,
			"byteOffset":14864,
			"target":34962
		},
		{
			"buffer":0,
			"byteLength":640,
			"byteOffset":15824,
			"target":34962
		},
		{
			"buffer":0,
			"byteLength":264,
			"byteOffset":16464,
			"target":34963
		}
	],
	"buffers":[
		{
			"byteLength":16728,
			"uri":"fire_thing.bin"
		}
	]
}
