{
	"asset":{
		"generator":"Khronos glTF Blender I/O v4.0.44",
		"version":"2.0"
	},
	"extensionsUsed":[
		"KHR_materials_specular",
		"KHR_materials_ior"
	],
	"scene":0,
	"scenes":[
		{
			"name":"Scene",
			"nodes":[
				2
			]
		}
	],
	"nodes":[
		{
			"mesh":0,
			"name":"Blades"
		},
		{
			"children":[
				0
			],
			"mesh":1,
			"name":"Center"
		},
		{
			"children":[
				1
			],
			"mesh":2,
			"name":"Fitting"
		}
	],
	"materials":[
		{
			"doubleSided":true,
			"extensions":{
				"KHR_materials_specular":{
					"specularFactor":0.25984251499176025
				},
				"KHR_materials_ior":{
					"ior":1
				}
			},
			"name":"GiantFan_material",
			"pbrMetallicRoughness":{
				"baseColorTexture":{
					"index":0
				},
				"metallicFactor":0.20000000298023224,
				"roughnessFactor":0.8307086229324341
			}
		}
	],
	"meshes":[
		{
			"name":"Cylinder.005",
			"primitives":[
				{
					"attributes":{
						"POSITION":0,
						"NORMAL":1,
						"TEXCOORD_0":2
					},
					"indices":3,
					"material":0
				}
			]
		},
		{
			"name":"Cylinder.006",
			"primitives":[
				{
					"attributes":{
						"POSITION":4,
						"NORMAL":5,
						"TEXCOORD_0":6
					},
					"indices":7,
					"material":0
				}
			]
		},
		{
			"name":"Cube.002",
			"primitives":[
				{
					"attributes":{
						"POSITION":8,
						"NORMAL":9,
						"TEXCOORD_0":10
					},
					"indices":11,
					"material":0
				}
			]
		}
	],
	"textures":[
		{
			"sampler":0,
			"source":0
		}
	],
	"images":[
		{
			"mimeType":"image/png",
			"name":"texture_GiantFan",
			"uri":"texture_GiantFan.png"
		}
	],
	"accessors":[
		{
			"bufferView":0,
			"componentType":5126,
			"count":1328,
			"max":[
				8.264547348022461,
				0.5494080781936646,
				8.264547348022461
			],
			"min":[
				-8.264547348022461,
				-0.5494080781936646,
				-8.264547348022461
			],
			"type":"VEC3"
		},
		{
			"bufferView":1,
			"componentType":5126,
			"count":1328,
			"type":"VEC3"
		},
		{
			"bufferView":2,
			"componentType":5126,
			"count":1328,
			"type":"VEC2"
		},
		{
			"bufferView":3,
			"componentType":5123,
			"count":2064,
			"type":"SCALAR"
		},
		{
			"bufferView":4,
			"componentType":5126,
			"count":576,
			"max":[
				0.8671844601631165,
				0.9360202550888062,
				0.8671844601631165
			],
			"min":[
				-0.8671844601631165,
				-0.769252359867096,
				-0.8671844601631165
			],
			"type":"VEC3"
		},
		{
			"bufferView":5,
			"componentType":5126,
			"count":576,
			"type":"VEC3"
		},
		{
			"bufferView":6,
			"componentType":5126,
			"count":576,
			"type":"VEC2"
		},
		{
			"bufferView":7,
			"componentType":5123,
			"count":948,
			"type":"SCALAR"
		},
		{
			"bufferView":8,
			"componentType":5126,
			"count":516,
			"max":[
				10,
				0.7755289077758789,
				10
			],
			"min":[
				-10,
				-0.7755289077758789,
				-10
			],
			"type":"VEC3"
		},
		{
			"bufferView":9,
			"componentType":5126,
			"count":516,
			"type":"VEC3"
		},
		{
			"bufferView":10,
			"componentType":5126,
			"count":516,
			"type":"VEC2"
		},
		{
			"bufferView":11,
			"componentType":5123,
			"count":912,
			"type":"SCALAR"
		}
	],
	"bufferViews":[
		{
			"buffer":0,
			"byteLength":15936,
			"byteOffset":0,
			"target":34962
		},
		{
			"buffer":0,
			"byteLength":15936,
			"byteOffset":15936,
			"target":34962
		},
		{
			"buffer":0,
			"byteLength":10624,
			"byteOffset":31872,
			"target":34962
		},
		{
			"buffer":0,
			"byteLength":4128,
			"byteOffset":42496,
			"target":34963
		},
		{
			"buffer":0,
			"byteLength":6912,
			"byteOffset":46624,
			"target":34962
		},
		{
			"buffer":0,
			"byteLength":6912,
			"byteOffset":53536,
			"target":34962
		},
		{
			"buffer":0,
			"byteLength":4608,
			"byteOffset":60448,
			"target":34962
		},
		{
			"buffer":0,
			"byteLength":1896,
			"byteOffset":65056,
			"target":34963
		},
		{
			"buffer":0,
			"byteLength":6192,
			"byteOffset":66952,
			"target":34962
		},
		{
			"buffer":0,
			"byteLength":6192,
			"byteOffset":73144,
			"target":34962
		},
		{
			"buffer":0,
			"byteLength":4128,
			"byteOffset":79336,
			"target":34962
		},
		{
			"buffer":0,
			"byteLength":1824,
			"byteOffset":83464,
			"target":34963
		}
	],
	"samplers":[
		{
			"magFilter":9728,
			"minFilter":9984
		}
	],
	"buffers":[
		{
			"byteLength":85288,
			"uri":"GiantFan_20m.bin"
		}
	]
}
