{
	"asset":{
		"generator":"Khronos glTF Blender I/O v4.0.44",
		"version":"2.0"
	},
	"scene":0,
	"scenes":[
		{
			"name":"Scene",
			"nodes":[
				0,
				1,
				2,
				3
			]
		}
	],
	"nodes":[
		{
			"mesh":0,
			"name":"Lift_body"
		},
		{
			"mesh":1,
			"name":"Lift_door_outer",
			"translation":[
				0.0038590310141444206,
				0,
				0
			]
		},
		{
			"mesh":2,
			"name":"Lift_door_inner",
			"translation":[
				0.06560352444648743,
				0,
				0
			]
		},
		{
			"mesh":3,
			"name":"Controls",
			"translation":[
				0.5831661820411682,
				1.0696284770965576,
				0.42503082752227783
			]
		}
	],
	"meshes":[
		{
			"name":"Cube.001",
			"primitives":[
				{
					"attributes":{
						"POSITION":0,
						"NORMAL":1,
						"TEXCOORD_0":2
					},
					"indices":3
				}
			]
		},
		{
			"name":"Cube.003",
			"primitives":[
				{
					"attributes":{
						"POSITION":4,
						"NORMAL":5,
						"TEXCOORD_0":6
					},
					"indices":7
				}
			]
		},
		{
			"name":"Cube.002",
			"primitives":[
				{
					"attributes":{
						"POSITION":8,
						"NORMAL":9,
						"TEXCOORD_0":10
					},
					"indices":7
				}
			]
		},
		{
			"name":"Cube",
			"primitives":[
				{
					"attributes":{
						"POSITION":11,
						"NORMAL":12,
						"TEXCOORD_0":13
					},
					"indices":7
				}
			]
		}
	],
	"accessors":[
		{
			"bufferView":0,
			"componentType":5126,
			"count":100,
			"max":[
				1.125,
				2.3459417819976807,
				1.125
			],
			"min":[
				0,
				-0.12383813410997391,
				-1.3064062595367432
			],
			"type":"VEC3"
		},
		{
			"bufferView":1,
			"componentType":5126,
			"count":100,
			"type":"VEC3"
		},
		{
			"bufferView":2,
			"componentType":5126,
			"count":100,
			"type":"VEC2"
		},
		{
			"bufferView":3,
			"componentType":5123,
			"count":240,
			"type":"SCALAR"
		},
		{
			"bufferView":4,
			"componentType":5126,
			"count":24,
			"max":[
				1.1017764806747437,
				2.050869941711426,
				1.0917186737060547
			],
			"min":[
				0.652245283126831,
				0.008271635510027409,
				0.8826557993888855
			],
			"type":"VEC3"
		},
		{
			"bufferView":5,
			"componentType":5126,
			"count":24,
			"type":"VEC3"
		},
		{
			"bufferView":6,
			"componentType":5126,
			"count":24,
			"type":"VEC2"
		},
		{
			"bufferView":7,
			"componentType":5123,
			"count":36,
			"type":"SCALAR"
		},
		{
			"bufferView":8,
			"componentType":5126,
			"count":24,
			"max":[
				0.9898645877838135,
				2.041285991668701,
				1.0586031675338745
			],
			"min":[
				0.5403333902359009,
				0.01785576343536377,
				0.9157714247703552
			],
			"type":"VEC3"
		},
		{
			"bufferView":9,
			"componentType":5126,
			"count":24,
			"type":"VEC3"
		},
		{
			"bufferView":10,
			"componentType":5126,
			"count":24,
			"type":"VEC2"
		},
		{
			"bufferView":11,
			"componentType":5126,
			"count":24,
			"max":[
				0.25,
				0.48630082607269287,
				0.17079049348831177
			],
			"min":[
				0.20478090643882751,
				-0.48630082607269287,
				-0.17079049348831177
			],
			"type":"VEC3"
		},
		{
			"bufferView":12,
			"componentType":5126,
			"count":24,
			"type":"VEC3"
		},
		{
			"bufferView":13,
			"componentType":5126,
			"count":24,
			"type":"VEC2"
		}
	],
	"bufferViews":[
		{
			"buffer":0,
			"byteLength":1200,
			"byteOffset":0,
			"target":34962
		},
		{
			"buffer":0,
			"byteLength":1200,
			"byteOffset":1200,
			"target":34962
		},
		{
			"buffer":0,
			"byteLength":800,
			"byteOffset":2400,
			"target":34962
		},
		{
			"buffer":0,
			"byteLength":480,
			"byteOffset":3200,
			"target":34963
		},
		{
			"buffer":0,
			"byteLength":288,
			"byteOffset":3680,
			"target":34962
		},
		{
			"buffer":0,
			"byteLength":288,
			"byteOffset":3968,
			"target":34962
		},
		{
			"buffer":0,
			"byteLength":192,
			"byteOffset":4256,
			"target":34962
		},
		{
			"buffer":0,
			"byteLength":72,
			"byteOffset":4448,
			"target":34963
		},
		{
			"buffer":0,
			"byteLength":288,
			"byteOffset":4520,
			"target":34962
		},
		{
			"buffer":0,
			"byteLength":288,
			"byteOffset":4808,
			"target":34962
		},
		{
			"buffer":0,
			"byteLength":192,
			"byteOffset":5096,
			"target":34962
		},
		{
			"buffer":0,
			"byteLength":288,
			"byteOffset":5288,
			"target":34962
		},
		{
			"buffer":0,
			"byteLength":288,
			"byteOffset":5576,
			"target":34962
		},
		{
			"buffer":0,
			"byteLength":192,
			"byteOffset":5864,
			"target":34962
		}
	],
	"buffers":[
		{
			"byteLength":6056,
			"uri":"Lift.bin"
		}
	]
}
