{
	"asset":{
		"generator":"Khronos glTF Blender I/O v4.0.44",
		"version":"2.0"
	},
	"scene":0,
	"scenes":[
		{
			"name":"Scene",
			"nodes":[
				0,
				1,
				2
			]
		}
	],
	"nodes":[
		{
			"mesh":0,
			"name":"switch_body"
		},
		{
			"mesh":1,
			"name":"switch_right",
			"rotation":[
				-0.03489949554204941,
				0,
				0,
				0.9993908405303955
			],
			"translation":[
				0.024416986852884293,
				0,
				0.026860959827899933
			]
		},
		{
			"mesh":2,
			"name":"switch_left",
			"rotation":[
				-0.03489949554204941,
				0,
				0,
				0.9993908405303955
			],
			"translation":[
				-0.024416986852884293,
				0,
				0.026860961690545082
			]
		}
	],
	"materials":[
		{
			"doubleSided":true,
			"name":"texture_switch",
			"pbrMetallicRoughness":{
				"baseColorTexture":{
					"index":0
				},
				"metallicFactor":0,
				"roughnessFactor":0.5
			}
		}
	],
	"meshes":[
		{
			"name":"Cube.002",
			"primitives":[
				{
					"attributes":{
						"POSITION":0,
						"NORMAL":1,
						"TEXCOORD_0":2
					},
					"indices":3,
					"material":0
				}
			]
		},
		{
			"name":"Cube.003",
			"primitives":[
				{
					"attributes":{
						"POSITION":4,
						"NORMAL":5,
						"TEXCOORD_0":6
					},
					"indices":7,
					"material":0
				}
			]
		},
		{
			"name":"Cube.004",
			"primitives":[
				{
					"attributes":{
						"POSITION":8,
						"NORMAL":9,
						"TEXCOORD_0":10
					},
					"indices":11,
					"material":0
				}
			]
		}
	],
	"textures":[
		{
			"sampler":0,
			"source":0
		}
	],
	"images":[
		{
			"mimeType":"image/png",
			"name":"texture_switch",
			"uri":"texture_switch.png"
		}
	],
	"accessors":[
		{
			"bufferView":0,
			"componentType":5126,
			"count":40,
			"max":[
				0.05999999865889549,
				0.05999999865889549,
				0.026799984276294708
			],
			"min":[
				-0.05999999865889549,
				-0.05999999865889549,
				-0.0032351985573768616
			],
			"type":"VEC3"
		},
		{
			"bufferView":1,
			"componentType":5126,
			"count":40,
			"type":"VEC3"
		},
		{
			"bufferView":2,
			"componentType":5126,
			"count":40,
			"type":"VEC2"
		},
		{
			"bufferView":3,
			"componentType":5123,
			"count":60,
			"type":"SCALAR"
		},
		{
			"bufferView":4,
			"componentType":5126,
			"count":24,
			"max":[
				0.019702060148119926,
				0.04566501826047897,
				0.004406251013278961
			],
			"min":[
				-0.019702058285474777,
				-0.04566501826047897,
				-0.004406249150633812
			],
			"type":"VEC3"
		},
		{
			"bufferView":5,
			"componentType":5126,
			"count":24,
			"type":"VEC3"
		},
		{
			"bufferView":6,
			"componentType":5126,
			"count":24,
			"type":"VEC2"
		},
		{
			"bufferView":7,
			"componentType":5123,
			"count":36,
			"type":"SCALAR"
		},
		{
			"bufferView":8,
			"componentType":5126,
			"count":24,
			"max":[
				0.019702060148119926,
				0.04566501826047897,
				0.004406249150633812
			],
			"min":[
				-0.019702058285474777,
				-0.04566501826047897,
				-0.004406251013278961
			],
			"type":"VEC3"
		},
		{
			"bufferView":9,
			"componentType":5126,
			"count":24,
			"type":"VEC3"
		},
		{
			"bufferView":10,
			"componentType":5126,
			"count":24,
			"type":"VEC2"
		},
		{
			"bufferView":11,
			"componentType":5123,
			"count":36,
			"type":"SCALAR"
		}
	],
	"bufferViews":[
		{
			"buffer":0,
			"byteLength":480,
			"byteOffset":0,
			"target":34962
		},
		{
			"buffer":0,
			"byteLength":480,
			"byteOffset":480,
			"target":34962
		},
		{
			"buffer":0,
			"byteLength":320,
			"byteOffset":960,
			"target":34962
		},
		{
			"buffer":0,
			"byteLength":120,
			"byteOffset":1280,
			"target":34963
		},
		{
			"buffer":0,
			"byteLength":288,
			"byteOffset":1400,
			"target":34962
		},
		{
			"buffer":0,
			"byteLength":288,
			"byteOffset":1688,
			"target":34962
		},
		{
			"buffer":0,
			"byteLength":192,
			"byteOffset":1976,
			"target":34962
		},
		{
			"buffer":0,
			"byteLength":72,
			"byteOffset":2168,
			"target":34963
		},
		{
			"buffer":0,
			"byteLength":288,
			"byteOffset":2240,
			"target":34962
		},
		{
			"buffer":0,
			"byteLength":288,
			"byteOffset":2528,
			"target":34962
		},
		{
			"buffer":0,
			"byteLength":192,
			"byteOffset":2816,
			"target":34962
		},
		{
			"buffer":0,
			"byteLength":72,
			"byteOffset":3008,
			"target":34963
		}
	],
	"samplers":[
		{
			"magFilter":9729,
			"minFilter":9987
		}
	],
	"buffers":[
		{
			"byteLength":3080,
			"uri":"LightSwitch.bin"
		}
	]
}
