{
	"asset":{
		"generator":"Khronos glTF Blender I/O v4.0.44",
		"version":"2.0"
	},
	"extensionsUsed":[
		"KHR_materials_specular",
		"KHR_materials_ior"
	],
	"scene":0,
	"scenes":[
		{
			"name":"Scene",
			"nodes":[
				1
			]
		}
	],
	"nodes":[
		{
			"mesh":0,
			"name":"Microwave_door_01",
			"scale":[
				1.0393093824386597,
				0.9934090375900269,
				0.9934090375900269
			],
			"translation":[
				-1.5071220397949219,
				0,
				-0.7766132354736328
			]
		},
		{
			"children":[
				0
			],
			"mesh":1,
			"name":"Microwave_01",
			"rotation":[
				-1,
				0,
				0,
				7.549790836947068e-08
			],
			"scale":[
				-0.22513741254806519,
				-0.22513741254806519,
				-0.22513741254806519
			],
			"translation":[
				-0.16965484619140625,
				0,
				0.08742237091064453
			]
		}
	],
	"materials":[
		{
			"alphaCutoff":0.5,
			"alphaMode":"MASK",
			"doubleSided":true,
			"extensions":{
				"KHR_materials_specular":{
					"specularFactor":0
				},
				"KHR_materials_ior":{
					"ior":1.4500000476837158
				}
			},
			"name":"Kitchen",
			"pbrMetallicRoughness":{
				"baseColorTexture":{
					"index":0
				},
				"metallicFactor":0
			}
		},
		{
			"alphaMode":"BLEND",
			"doubleSided":true,
			"extensions":{
				"KHR_materials_specular":{
					"specularFactor":0.9710144996643066
				},
				"KHR_materials_ior":{
					"ior":1.4500000476837158
				}
			},
			"name":"Glass",
			"pbrMetallicRoughness":{
				"baseColorFactor":[
					1,
					1,
					1,
					0.4636363387107849
				],
				"metallicFactor":0,
				"roughnessFactor":0
			}
		}
	],
	"meshes":[
		{
			"name":"Microwave_door_01",
			"primitives":[
				{
					"attributes":{
						"POSITION":0,
						"NORMAL":1,
						"TEXCOORD_0":2
					},
					"indices":3,
					"material":0
				},
				{
					"attributes":{
						"POSITION":4,
						"NORMAL":5,
						"TEXCOORD_0":6
					},
					"indices":7,
					"material":1
				}
			]
		},
		{
			"name":"Microwave_01",
			"primitives":[
				{
					"attributes":{
						"POSITION":8,
						"NORMAL":9,
						"TEXCOORD_0":10
					},
					"indices":11,
					"material":0
				}
			]
		}
	],
	"textures":[
		{
			"sampler":0,
			"source":0
		}
	],
	"images":[
		{
			"mimeType":"image/jpeg",
			"name":"Kitchen",
			"uri":"Kitchen.jpg"
		}
	],
	"accessors":[
		{
			"bufferView":0,
			"componentType":5126,
			"count":48,
			"max":[
				2.433051824569702,
				0.7976159453392029,
				0.0052557894960045815
			],
			"min":[
				-0.002459883689880371,
				-0.7976160049438477,
				-0.13397780060768127
			],
			"type":"VEC3"
		},
		{
			"bufferView":1,
			"componentType":5126,
			"count":48,
			"type":"VEC3"
		},
		{
			"bufferView":2,
			"componentType":5126,
			"count":48,
			"type":"VEC2"
		},
		{
			"bufferView":3,
			"componentType":5123,
			"count":96,
			"type":"SCALAR"
		},
		{
			"bufferView":4,
			"componentType":5126,
			"count":8,
			"max":[
				1.886112928390503,
				0.4686388373374939,
				-0.023024577647447586
			],
			"min":[
				0.3095969259738922,
				-0.48645496368408203,
				-0.09776517003774643
			],
			"type":"VEC3"
		},
		{
			"bufferView":5,
			"componentType":5126,
			"count":8,
			"type":"VEC3"
		},
		{
			"bufferView":6,
			"componentType":5126,
			"count":8,
			"type":"VEC2"
		},
		{
			"bufferView":7,
			"componentType":5123,
			"count":12,
			"type":"SCALAR"
		},
		{
			"bufferView":8,
			"componentType":5126,
			"count":76,
			"max":[
				1.5295829772949219,
				0.7976160049438477,
				1
			],
			"min":[
				-1.5295828580856323,
				-0.7976159453392029,
				-0.9437238574028015
			],
			"type":"VEC3"
		},
		{
			"bufferView":9,
			"componentType":5126,
			"count":76,
			"type":"VEC3"
		},
		{
			"bufferView":10,
			"componentType":5126,
			"count":76,
			"type":"VEC2"
		},
		{
			"bufferView":11,
			"componentType":5123,
			"count":132,
			"type":"SCALAR"
		}
	],
	"bufferViews":[
		{
			"buffer":0,
			"byteLength":576,
			"byteOffset":0,
			"target":34962
		},
		{
			"buffer":0,
			"byteLength":576,
			"byteOffset":576,
			"target":34962
		},
		{
			"buffer":0,
			"byteLength":384,
			"byteOffset":1152,
			"target":34962
		},
		{
			"buffer":0,
			"byteLength":192,
			"byteOffset":1536,
			"target":34963
		},
		{
			"buffer":0,
			"byteLength":96,
			"byteOffset":1728,
			"target":34962
		},
		{
			"buffer":0,
			"byteLength":96,
			"byteOffset":1824,
			"target":34962
		},
		{
			"buffer":0,
			"byteLength":64,
			"byteOffset":1920,
			"target":34962
		},
		{
			"buffer":0,
			"byteLength":24,
			"byteOffset":1984,
			"target":34963
		},
		{
			"buffer":0,
			"byteLength":912,
			"byteOffset":2008,
			"target":34962
		},
		{
			"buffer":0,
			"byteLength":912,
			"byteOffset":2920,
			"target":34962
		},
		{
			"buffer":0,
			"byteLength":608,
			"byteOffset":3832,
			"target":34962
		},
		{
			"buffer":0,
			"byteLength":264,
			"byteOffset":4440,
			"target":34963
		}
	],
	"samplers":[
		{
			"magFilter":9728,
			"minFilter":9984
		}
	],
	"buffers":[
		{
			"byteLength":4704,
			"uri":"microwave.bin"
		}
	]
}
