{
	"asset":{
		"generator":"Khronos glTF Blender I/O v4.0.44",
		"version":"2.0"
	},
	"extensionsUsed":[
		"KHR_materials_specular",
		"KHR_materials_ior"
	],
	"scene":0,
	"scenes":[
		{
			"name":"Scene",
			"nodes":[
				0
			]
		}
	],
	"nodes":[
		{
			"mesh":0,
			"name":"radio",
			"rotation":[
				0.7071068286895752,
				0,
				0,
				0.7071068286895752
			]
		}
	],
	"materials":[
		{
			"doubleSided":true,
			"extensions":{
				"KHR_materials_specular":{
					"specularFactor":0
				},
				"KHR_materials_ior":{
					"ior":1.4500000476837158
				}
			},
			"name":"radio",
			"pbrMetallicRoughness":{
				"baseColorTexture":{
					"index":0
				},
				"metallicFactor":0,
				"roughnessFactor":0.9399999976158142
			}
		}
	],
	"meshes":[
		{
			"name":"radio",
			"primitives":[
				{
					"attributes":{
						"POSITION":0,
						"NORMAL":1,
						"TEXCOORD_0":2
					},
					"indices":3,
					"material":0
				}
			]
		}
	],
	"textures":[
		{
			"sampler":0,
			"source":0
		}
	],
	"images":[
		{
			"mimeType":"image/png",
			"name":"radio_lores",
			"uri":"radio_lores.png"
		}
	],
	"accessors":[
		{
			"bufferView":0,
			"componentType":5126,
			"count":161,
			"max":[
				0.10249999910593033,
				0.03500000014901161,
				7.000000096013537e-06
			],
			"min":[
				-0.10249999910593033,
				-0.03939500078558922,
				-0.26835736632347107
			],
			"type":"VEC3"
		},
		{
			"bufferView":1,
			"componentType":5126,
			"count":161,
			"type":"VEC3"
		},
		{
			"bufferView":2,
			"componentType":5126,
			"count":161,
			"type":"VEC2"
		},
		{
			"bufferView":3,
			"componentType":5123,
			"count":285,
			"type":"SCALAR"
		}
	],
	"bufferViews":[
		{
			"buffer":0,
			"byteLength":1932,
			"byteOffset":0,
			"target":34962
		},
		{
			"buffer":0,
			"byteLength":1932,
			"byteOffset":1932,
			"target":34962
		},
		{
			"buffer":0,
			"byteLength":1288,
			"byteOffset":3864,
			"target":34962
		},
		{
			"buffer":0,
			"byteLength":570,
			"byteOffset":5152,
			"target":34963
		}
	],
	"samplers":[
		{
			"magFilter":9728,
			"minFilter":9984
		}
	],
	"buffers":[
		{
			"byteLength":5724,
			"uri":"radio.bin"
		}
	]
}
