{
	"asset":{
		"generator":"Khronos glTF Blender I/O v4.0.44",
		"version":"2.0"
	},
	"extensionsUsed":[
		"KHR_materials_specular",
		"KHR_materials_ior"
	],
	"scene":0,
	"scenes":[
		{
			"name":"Scene",
			"nodes":[
				0
			]
		}
	],
	"nodes":[
		{
			"mesh":0,
			"name":"Lamps_02",
			"rotation":[
				0,
				0.2269391268491745,
				0,
				0.9739089608192444
			]
		}
	],
	"materials":[
		{
			"doubleSided":true,
			"extensions":{
				"KHR_materials_specular":{
					"specularFactor":0
				},
				"KHR_materials_ior":{
					"ior":1.4500000476837158
				}
			},
			"name":"Metal_04",
			"pbrMetallicRoughness":{
				"baseColorTexture":{
					"index":0
				},
				"metallicFactor":0
			}
		},
		{
			"doubleSided":true,
			"emissiveFactor":[
				1,
				1,
				1
			],
			"extensions":{
				"KHR_materials_specular":{
					"specularFactor":0
				},
				"KHR_materials_ior":{
					"ior":1.4500000476837158
				}
			},
			"name":"Emissor.001",
			"pbrMetallicRoughness":{
				"baseColorFactor":[
					0.8000000715255737,
					0.8000000715255737,
					0.8000000715255737,
					0.4000000059604645
				],
				"metallicFactor":0
			}
		}
	],
	"meshes":[
		{
			"name":"Lamps_02",
			"primitives":[
				{
					"attributes":{
						"POSITION":0,
						"NORMAL":1,
						"TEXCOORD_0":2
					},
					"indices":3,
					"material":0
				},
				{
					"attributes":{
						"POSITION":4,
						"NORMAL":5,
						"TEXCOORD_0":6
					},
					"indices":7,
					"material":1
				}
			]
		}
	],
	"textures":[
		{
			"sampler":0,
			"source":0
		}
	],
	"images":[
		{
			"mimeType":"image/jpeg",
			"name":"Metal_04",
			"uri":"Metal_04.jpg"
		}
	],
	"accessors":[
		{
			"bufferView":0,
			"componentType":5126,
			"count":30,
			"max":[
				0.10227435827255249,
				0.04649195820093155,
				0.118096262216568
			],
			"min":[
				-0.10227435827255249,
				0.015227779746055603,
				-0.1180962473154068
			],
			"type":"VEC3"
		},
		{
			"bufferView":1,
			"componentType":5126,
			"count":30,
			"type":"VEC3"
		},
		{
			"bufferView":2,
			"componentType":5126,
			"count":30,
			"type":"VEC2"
		},
		{
			"bufferView":3,
			"componentType":5123,
			"count":48,
			"type":"SCALAR"
		},
		{
			"bufferView":4,
			"componentType":5126,
			"count":54,
			"max":[
				0.10227435827255249,
				0.015227779746055603,
				0.118096262216568
			],
			"min":[
				-0.10227435827255249,
				-0.08022178709506989,
				-0.1180962473154068
			],
			"type":"VEC3"
		},
		{
			"bufferView":5,
			"componentType":5126,
			"count":54,
			"type":"VEC3"
		},
		{
			"bufferView":6,
			"componentType":5126,
			"count":54,
			"type":"VEC2"
		},
		{
			"bufferView":7,
			"componentType":5123,
			"count":84,
			"type":"SCALAR"
		}
	],
	"bufferViews":[
		{
			"buffer":0,
			"byteLength":360,
			"byteOffset":0,
			"target":34962
		},
		{
			"buffer":0,
			"byteLength":360,
			"byteOffset":360,
			"target":34962
		},
		{
			"buffer":0,
			"byteLength":240,
			"byteOffset":720,
			"target":34962
		},
		{
			"buffer":0,
			"byteLength":96,
			"byteOffset":960,
			"target":34963
		},
		{
			"buffer":0,
			"byteLength":648,
			"byteOffset":1056,
			"target":34962
		},
		{
			"buffer":0,
			"byteLength":648,
			"byteOffset":1704,
			"target":34962
		},
		{
			"buffer":0,
			"byteLength":432,
			"byteOffset":2352,
			"target":34962
		},
		{
			"buffer":0,
			"byteLength":168,
			"byteOffset":2784,
			"target":34963
		}
	],
	"samplers":[
		{
			"magFilter":9728,
			"minFilter":9984
		}
	],
	"buffers":[
		{
			"byteLength":2952,
			"uri":"small_light.bin"
		}
	]
}
