{
	"asset":{
		"generator":"Khronos glTF Blender I/O v4.0.44",
		"version":"2.0"
	},
	"extensionsUsed":[
		"KHR_materials_specular",
		"KHR_materials_ior"
	],
	"scene":0,
	"scenes":[
		{
			"name":"Scene",
			"nodes":[
				0
			]
		}
	],
	"nodes":[
		{
			"mesh":0,
			"name":"ThinRack"
		}
	],
	"materials":[
		{
			"doubleSided":true,
			"extensions":{
				"KHR_materials_specular":{
					"specularFactor":0.009999999776482582
				},
				"KHR_materials_ior":{
					"ior":1.4500000476837158
				}
			},
			"name":"shelf",
			"pbrMetallicRoughness":{
				"baseColorTexture":{
					"index":0
				},
				"metallicFactor":0,
				"roughnessFactor":0.8999999761581421
			}
		},
		{
			"doubleSided":true,
			"extensions":{
				"KHR_materials_specular":{
					"specularFactor":0.20000000298023224
				},
				"KHR_materials_ior":{
					"ior":1.4500000476837158
				}
			},
			"name":"rack",
			"pbrMetallicRoughness":{
				"baseColorTexture":{
					"index":1
				},
				"metallicFactor":0
			}
		}
	],
	"meshes":[
		{
			"name":"Cube.001",
			"primitives":[
				{
					"attributes":{
						"POSITION":0,
						"NORMAL":1,
						"TEXCOORD_0":2
					},
					"indices":3,
					"material":0
				},
				{
					"attributes":{
						"POSITION":4,
						"NORMAL":5,
						"TEXCOORD_0":6
					},
					"indices":7,
					"material":1
				}
			]
		}
	],
	"textures":[
		{
			"sampler":0,
			"source":0
		},
		{
			"sampler":0,
			"source":1
		}
	],
	"images":[
		{
			"mimeType":"image/png",
			"name":"texture_shelf_wood",
			"uri":"texture_shelf_wood.png"
		},
		{
			"mimeType":"image/png",
			"name":"texture_shelf_metal",
			"uri":"texture_shelf_metal.png"
		}
	],
	"accessors":[
		{
			"bufferView":0,
			"componentType":5126,
			"count":24,
			"max":[
				0.8391290307044983,
				2.1733036041259766,
				0.3037363290786743
			],
			"min":[
				-0.8392162919044495,
				0.15625,
				-0.25621354579925537
			],
			"type":"VEC3"
		},
		{
			"bufferView":1,
			"componentType":5126,
			"count":24,
			"type":"VEC3"
		},
		{
			"bufferView":2,
			"componentType":5126,
			"count":24,
			"type":"VEC2"
		},
		{
			"bufferView":3,
			"componentType":5123,
			"count":36,
			"type":"SCALAR"
		},
		{
			"bufferView":4,
			"componentType":5126,
			"count":416,
			"max":[
				0.8833855986595154,
				2.1733036041259766,
				0.3514048457145691
			],
			"min":[
				-0.8833855986595154,
				0,
				-0.29707223176956177
			],
			"type":"VEC3"
		},
		{
			"bufferView":5,
			"componentType":5126,
			"count":416,
			"type":"VEC3"
		},
		{
			"bufferView":6,
			"componentType":5126,
			"count":416,
			"type":"VEC2"
		},
		{
			"bufferView":7,
			"componentType":5123,
			"count":696,
			"type":"SCALAR"
		}
	],
	"bufferViews":[
		{
			"buffer":0,
			"byteLength":288,
			"byteOffset":0,
			"target":34962
		},
		{
			"buffer":0,
			"byteLength":288,
			"byteOffset":288,
			"target":34962
		},
		{
			"buffer":0,
			"byteLength":192,
			"byteOffset":576,
			"target":34962
		},
		{
			"buffer":0,
			"byteLength":72,
			"byteOffset":768,
			"target":34963
		},
		{
			"buffer":0,
			"byteLength":4992,
			"byteOffset":840,
			"target":34962
		},
		{
			"buffer":0,
			"byteLength":4992,
			"byteOffset":5832,
			"target":34962
		},
		{
			"buffer":0,
			"byteLength":3328,
			"byteOffset":10824,
			"target":34962
		},
		{
			"buffer":0,
			"byteLength":1392,
			"byteOffset":14152,
			"target":34963
		}
	],
	"samplers":[
		{
			"magFilter":9728,
			"minFilter":9984
		}
	],
	"buffers":[
		{
			"byteLength":15544,
			"uri":"thin_rack.bin"
		}
	]
}
