{
	"asset":{
		"generator":"Khronos glTF Blender I/O v4.0.44",
		"version":"2.0"
	},
	"extensionsUsed":[
		"KHR_materials_specular",
		"KHR_materials_ior"
	],
	"scene":0,
	"scenes":[
		{
			"name":"Scene",
			"nodes":[
				0,
				1,
				2,
				3
			]
		}
	],
	"nodes":[
		{
			"mesh":0,
			"name":"flap_bottom",
			"rotation":[
				0,
				0,
				-1,
				0
			],
			"scale":[
				-1,
				-1,
				-1
			],
			"translation":[
				-0.00037097930908203125,
				0.5954316854476929,
				0.047109514474868774
			]
		},
		{
			"mesh":1,
			"name":"flap_top",
			"rotation":[
				0,
				-0.0009021321311593056,
				-0.9999996423721313,
				1.779943992499009e-18
			],
			"scale":[
				-1,
				-0.9999999403953552,
				-0.9999999403953552
			],
			"translation":[
				-0.00037097930908203125,
				0.6209762692451477,
				0.047109514474868774
			]
		},
		{
			"mesh":2,
			"name":"toilet",
			"rotation":[
				0,
				0,
				-1,
				0
			],
			"scale":[
				-1,
				-1,
				-1
			],
			"translation":[
				0.0007424354553222656,
				0.0004361271858215332,
				0.18349090218544006
			]
		},
		{
			"mesh":3,
			"name":"flusher",
			"rotation":[
				0,
				0,
				-1,
				0
			],
			"scale":[
				-1,
				-1,
				-1
			],
			"translation":[
				-0.322489857673645,
				0.950679361820221,
				-0.16108649969100952
			]
		}
	],
	"materials":[
		{
			"doubleSided":true,
			"extensions":{
				"KHR_materials_specular":{
					"specularFactor":0
				},
				"KHR_materials_ior":{
					"ior":1.4500000476837158
				}
			},
			"name":"White",
			"pbrMetallicRoughness":{
				"baseColorFactor":[
					0.8970913290977478,
					0.8970913290977478,
					0.8970913290977478,
					1
				],
				"metallicFactor":0
			}
		}
	],
	"meshes":[
		{
			"name":"Toilet_Tapa_02",
			"primitives":[
				{
					"attributes":{
						"POSITION":0,
						"NORMAL":1,
						"TEXCOORD_0":2
					},
					"indices":3,
					"material":0
				}
			]
		},
		{
			"name":"Toilet_Tapa_01",
			"primitives":[
				{
					"attributes":{
						"POSITION":4,
						"NORMAL":5,
						"TEXCOORD_0":6
					},
					"indices":7,
					"material":0
				}
			]
		},
		{
			"name":"Toilet_01",
			"primitives":[
				{
					"attributes":{
						"POSITION":8,
						"NORMAL":9,
						"TEXCOORD_0":10
					},
					"indices":11,
					"material":0
				}
			]
		},
		{
			"name":"Toilet_01.001",
			"primitives":[
				{
					"attributes":{
						"POSITION":12,
						"NORMAL":13,
						"TEXCOORD_0":14
					},
					"indices":15,
					"material":0
				}
			]
		}
	],
	"accessors":[
		{
			"bufferView":0,
			"componentType":5126,
			"count":96,
			"max":[
				0.3392382264137268,
				0.016473524272441864,
				0.010680642910301685
			],
			"min":[
				-0.3370617926120758,
				-0.010261788964271545,
				-0.7272190451622009
			],
			"type":"VEC3"
		},
		{
			"bufferView":1,
			"componentType":5126,
			"count":96,
			"type":"VEC3"
		},
		{
			"bufferView":2,
			"componentType":5126,
			"count":96,
			"type":"VEC2"
		},
		{
			"bufferView":3,
			"componentType":5123,
			"count":240,
			"type":"SCALAR"
		},
		{
			"bufferView":4,
			"componentType":5126,
			"count":48,
			"max":[
				0.3144100308418274,
				0.015134328044950962,
				0.010426446795463562
			],
			"min":[
				-0.3123928904533386,
				-0.009427569806575775,
				-0.7099114060401917
			],
			"type":"VEC3"
		},
		{
			"bufferView":5,
			"componentType":5126,
			"count":48,
			"type":"VEC3"
		},
		{
			"bufferView":6,
			"componentType":5126,
			"count":48,
			"type":"VEC2"
		},
		{
			"bufferView":7,
			"componentType":5123,
			"count":108,
			"type":"SCALAR"
		},
		{
			"bufferView":8,
			"componentType":5126,
			"count":368,
			"max":[
				0.34081465005874634,
				1.0899028778076172,
				0.48185500502586365
			],
			"min":[
				-0.34081390500068665,
				2.9802322387695312e-08,
				-0.5927480459213257
			],
			"type":"VEC3"
		},
		{
			"bufferView":9,
			"componentType":5126,
			"count":368,
			"type":"VEC3"
		},
		{
			"bufferView":10,
			"componentType":5126,
			"count":368,
			"type":"VEC2"
		},
		{
			"bufferView":11,
			"componentType":5123,
			"count":987,
			"type":"SCALAR"
		},
		{
			"bufferView":12,
			"componentType":5126,
			"count":72,
			"max":[
				0.010910868644714355,
				0.028056025505065918,
				0.029283255338668823
			],
			"min":[
				-0.010906130075454712,
				-0.029277503490447998,
				-0.11052316427230835
			],
			"type":"VEC3"
		},
		{
			"bufferView":13,
			"componentType":5126,
			"count":72,
			"type":"VEC3"
		},
		{
			"bufferView":14,
			"componentType":5126,
			"count":72,
			"type":"VEC2"
		},
		{
			"bufferView":15,
			"componentType":5123,
			"count":168,
			"type":"SCALAR"
		}
	],
	"bufferViews":[
		{
			"buffer":0,
			"byteLength":1152,
			"byteOffset":0,
			"target":34962
		},
		{
			"buffer":0,
			"byteLength":1152,
			"byteOffset":1152,
			"target":34962
		},
		{
			"buffer":0,
			"byteLength":768,
			"byteOffset":2304,
			"target":34962
		},
		{
			"buffer":0,
			"byteLength":480,
			"byteOffset":3072,
			"target":34963
		},
		{
			"buffer":0,
			"byteLength":576,
			"byteOffset":3552,
			"target":34962
		},
		{
			"buffer":0,
			"byteLength":576,
			"byteOffset":4128,
			"target":34962
		},
		{
			"buffer":0,
			"byteLength":384,
			"byteOffset":4704,
			"target":34962
		},
		{
			"buffer":0,
			"byteLength":216,
			"byteOffset":5088,
			"target":34963
		},
		{
			"buffer":0,
			"byteLength":4416,
			"byteOffset":5304,
			"target":34962
		},
		{
			"buffer":0,
			"byteLength":4416,
			"byteOffset":9720,
			"target":34962
		},
		{
			"buffer":0,
			"byteLength":2944,
			"byteOffset":14136,
			"target":34962
		},
		{
			"buffer":0,
			"byteLength":1974,
			"byteOffset":17080,
			"target":34963
		},
		{
			"buffer":0,
			"byteLength":864,
			"byteOffset":19056,
			"target":34962
		},
		{
			"buffer":0,
			"byteLength":864,
			"byteOffset":19920,
			"target":34962
		},
		{
			"buffer":0,
			"byteLength":576,
			"byteOffset":20784,
			"target":34962
		},
		{
			"buffer":0,
			"byteLength":336,
			"byteOffset":21360,
			"target":34963
		}
	],
	"buffers":[
		{
			"byteLength":21696,
			"uri":"toilet.bin"
		}
	]
}
