{
	"asset":{
		"generator":"Khronos glTF Blender I/O v4.0.44",
		"version":"2.0"
	},
	"scene":0,
	"scenes":[
		{
			"name":"Scene",
			"nodes":[
				0
			]
		}
	],
	"nodes":[
		{
			"mesh":0,
			"name":"Television A",
			"scale":[
				1.9973417520523071,
				1.9973417520523071,
				1.9973417520523071
			]
		}
	],
	"materials":[
		{
			"doubleSided":true,
			"name":"Grey.002",
			"pbrMetallicRoughness":{
				"baseColorFactor":[
					0.2600274980068207,
					0.2600274980068207,
					0.2600274980068207,
					1
				],
				"metallicFactor":0,
				"roughnessFactor":0.5
			}
		},
		{
			"doubleSided":true,
			"name":"Grey 2.001",
			"pbrMetallicRoughness":{
				"baseColorFactor":[
					0.08696522563695908,
					0.08696522563695908,
					0.08696522563695908,
					1
				],
				"metallicFactor":0,
				"roughnessFactor":0.5
			}
		},
		{
			"doubleSided":true,
			"name":"Blue 2.002",
			"pbrMetallicRoughness":{
				"baseColorFactor":[
					0.04154860973358154,
					0.23032249510288239,
					0.23441897332668304,
					1
				],
				"metallicFactor":0,
				"roughnessFactor":0.5
			}
		}
	],
	"meshes":[
		{
			"name":"Cube.004",
			"primitives":[
				{
					"attributes":{
						"POSITION":0,
						"NORMAL":1,
						"TEXCOORD_0":2
					},
					"indices":3,
					"material":0
				},
				{
					"attributes":{
						"POSITION":4,
						"NORMAL":5,
						"TEXCOORD_0":6
					},
					"indices":7,
					"material":1
				},
				{
					"attributes":{
						"POSITION":8,
						"NORMAL":9,
						"TEXCOORD_0":10
					},
					"indices":11,
					"material":2
				}
			]
		}
	],
	"accessors":[
		{
			"bufferView":0,
			"componentType":5126,
			"count":88,
			"max":[
				1.0997065305709839,
				1.1903831958770752,
				0.6051865816116333
			],
			"min":[
				-1.0997065305709839,
				-0.9997801184654236,
				0.12851479649543762
			],
			"type":"VEC3"
		},
		{
			"bufferView":1,
			"componentType":5126,
			"count":88,
			"type":"VEC3"
		},
		{
			"bufferView":2,
			"componentType":5126,
			"count":88,
			"type":"VEC2"
		},
		{
			"bufferView":3,
			"componentType":5123,
			"count":144,
			"type":"SCALAR"
		},
		{
			"bufferView":4,
			"componentType":5126,
			"count":36,
			"max":[
				0.9314749240875244,
				0.9779525995254517,
				0.15697279572486877
			],
			"min":[
				-0.9314749240875244,
				-0.955908477306366,
				-1.3948134183883667
			],
			"type":"VEC3"
		},
		{
			"bufferView":5,
			"componentType":5126,
			"count":36,
			"type":"VEC3"
		},
		{
			"bufferView":6,
			"componentType":5126,
			"count":36,
			"type":"VEC2"
		},
		{
			"bufferView":7,
			"componentType":5123,
			"count":54,
			"type":"SCALAR"
		},
		{
			"bufferView":8,
			"componentType":5126,
			"count":4,
			"max":[
				0.8757310509681702,
				0.9697469472885132,
				0.49997004866600037
			],
			"min":[
				-0.8757310509681702,
				-0.7817151546478271,
				0.49997004866600037
			],
			"type":"VEC3"
		},
		{
			"bufferView":9,
			"componentType":5126,
			"count":4,
			"type":"VEC3"
		},
		{
			"bufferView":10,
			"componentType":5126,
			"count":4,
			"type":"VEC2"
		},
		{
			"bufferView":11,
			"componentType":5123,
			"count":6,
			"type":"SCALAR"
		}
	],
	"bufferViews":[
		{
			"buffer":0,
			"byteLength":1056,
			"byteOffset":0,
			"target":34962
		},
		{
			"buffer":0,
			"byteLength":1056,
			"byteOffset":1056,
			"target":34962
		},
		{
			"buffer":0,
			"byteLength":704,
			"byteOffset":2112,
			"target":34962
		},
		{
			"buffer":0,
			"byteLength":288,
			"byteOffset":2816,
			"target":34963
		},
		{
			"buffer":0,
			"byteLength":432,
			"byteOffset":3104,
			"target":34962
		},
		{
			"buffer":0,
			"byteLength":432,
			"byteOffset":3536,
			"target":34962
		},
		{
			"buffer":0,
			"byteLength":288,
			"byteOffset":3968,
			"target":34962
		},
		{
			"buffer":0,
			"byteLength":108,
			"byteOffset":4256,
			"target":34963
		},
		{
			"buffer":0,
			"byteLength":48,
			"byteOffset":4364,
			"target":34962
		},
		{
			"buffer":0,
			"byteLength":48,
			"byteOffset":4412,
			"target":34962
		},
		{
			"buffer":0,
			"byteLength":32,
			"byteOffset":4460,
			"target":34962
		},
		{
			"buffer":0,
			"byteLength":12,
			"byteOffset":4492,
			"target":34963
		}
	],
	"buffers":[
		{
			"byteLength":4504,
			"uri":"TV.bin"
		}
	]
}
